<svg xmlns="http://www.w3.org/2000/svg" version="1.0" width="500.000000pt" height="500.000000pt" viewBox="0 0 500.000000 500.000000" preserveAspectRatio="xMidYMid meet">

<g transform="translate(0.000000,500.000000) scale(0.100000,-0.100000)" fill="#ffffff" stroke="none">
<path d="M1014 3279 c-17 -5 -39 -18 -49 -29 -17 -19 -17 -22 0 -66 35 -91 114 -144 216 -144 43 0 110 27 116 47 2 6 -16 13 -39 17 -65 10 -116 49 -144 109 -13 29 -24 58 -24 65 0 14 -31 14 -76 1z" fill="#ffffff"/>
<path d="M3274 3279 c-48 -14 -66 -39 -54 -79 27 -95 114 -160 215 -160 49 0 115 25 122 47 2 6 -15 13 -39 17 -23 4 -57 16 -75 27 -35 22 -77 84 -88 132 -8 29 -24 33 -81 16z" fill="#ffffff"/>
<path d="M1625 3221 l-30 -6 -3 -133 -3 -132 -324 0 c-219 0 -325 -3 -325 -10 0 -6 20 -33 45 -59 l45 -48 0 -354 c0 -207 5 -373 11 -399 14 -60 52 -108 108 -133 38 -18 66 -21 166 -22 66 0 129 4 140 9 l20 8 -20 8 c-11 5 -32 9 -47 9 -14 1 -41 13 -59 28 -63 53 -64 60 -67 466 l-3 367 155 0 156 0 0 -362 c0 -222 4 -378 11 -401 14 -52 66 -101 125 -118 54 -15 247 -19 279 -5 l20 8 -20 8 c-11 5 -31 9 -43 9 -36 1 -82 39 -103 85 -17 38 -19 72 -19 409 l0 367 155 0 154 0 3 -372 c3 -362 4 -374 25 -414 18 -34 34 -46 91 -72 162 -72 224 -76 357 -23 348 140 505 440 422 809 l-24 103 136 -3 136 -3 2 -387 c2 -366 4 -390 22 -427 24 -46 58 -75 109 -93 42 -14 256 -18 287 -4 l20 8 -20 8 c-11 5 -32 9 -46 9 -35 1 -75 34 -99 82 -19 36 -20 60 -20 424 l0 385 430 0 c237 0 430 -3 430 -7 0 -5 -142 -195 -315 -423 -173 -228 -314 -420 -315 -427 0 -18 56 -79 96 -104 l35 -21 107 50 c195 92 350 134 502 135 183 1 255 -44 310 -191 12 -32 38 -74 58 -94 34 -36 97 -67 109 -54 10 9 -37 121 -74 178 -85 130 -173 204 -306 261 -65 28 -85 31 -197 35 -84 2 -147 -1 -192 -10 -38 -8 -68 -12 -68 -9 0 3 111 152 246 330 193 255 244 328 240 346 -3 12 -30 45 -60 73 l-55 52 -875 0 c-482 0 -876 -3 -876 -7 0 -4 10 -41 23 -82 19 -65 22 -99 22 -236 0 -153 -2 -163 -29 -230 -38 -90 -67 -137 -130 -204 -63 -66 -133 -119 -213 -159 l-61 -31 -6 31 c-3 17 -6 196 -6 399 l0 369 65 0 c46 0 65 4 65 13 -1 14 -33 52 -78 90 l-34 27 -279 0 -279 0 0 134 0 134 -31 6 c-38 7 -143 6 -184 -3z" fill="#ffffff"/>
<path d="M215 3076 c-91 -29 -169 -88 -205 -155 -10 -20 -6 -24 51 -51 35 -16 87 -35 118 -42 53 -12 55 -11 70 13 60 95 170 159 275 159 48 0 57 -3 81 -31 40 -48 65 -104 81 -180 12 -60 12 -78 0 -138 -23 -112 -81 -202 -162 -252 l-35 -21 -67 35 c-133 69 -241 86 -281 43 -32 -34 -16 -58 67 -100 l67 -34 25 -73 c48 -143 176 -335 268 -402 85 -62 216 -116 320 -132 68 -11 50 10 -40 47 -72 29 -88 40 -132 94 -66 80 -137 200 -176 296 -45 115 -46 115 53 120 105 6 178 39 241 109 134 149 125 390 -19 535 -124 125 -443 210 -600 160z" fill="#ffffff"/>
</g>
</svg>